<?xml version="1.0" encoding="utf-8"?>
<!-- Generator: Adobe Illustrator 17.1.0, SVG Export Plug-In . SVG Version: 6.00 Build 0)  -->
<!DOCTYPE svg PUBLIC "-//W3C//DTD SVG 1.1//EN" "http://www.w3.org/Graphics/SVG/1.1/DTD/svg11.dtd">
<svg version="1.1" id="Layer_1" xmlns="http://www.w3.org/2000/svg" xmlns:xlink="http://www.w3.org/1999/xlink" x="0px" y="0px"
	 width="240px" height="240px" viewBox="0 0 240 240" enable-background="new 0 0 240 240" xml:space="preserve">
<g>
	<g>
		<path fill="#FFFFFF" d="M123.8,218.8c0-0.7,0.6-1.4,1.3-1.4l0,0c0.8,0,1.4,0.6,1.4,1.3l0,0c0,0.7-0.6,1.4-1.3,1.4l0,0c0,0,0,0,0,0
			l0,0C124.4,220.1,123.8,219.5,123.8,218.8z M129.2,218.6c0-0.8,0.5-1.4,1.3-1.4l0,0c0.7,0,1.4,0.5,1.4,1.3l0,0
			c0,0.7-0.5,1.4-1.3,1.4l0,0c0,0,0,0-0.1,0l0,0C129.8,219.9,129.2,219.3,129.2,218.6z M134.5,218.3c-0.1-0.7,0.5-1.4,1.2-1.4l0,0
			c0.8-0.1,1.4,0.5,1.4,1.2l0,0c0.1,0.7-0.5,1.4-1.2,1.4l0,0c0,0-0.1,0-0.1,0l0,0C135.2,219.6,134.6,219,134.5,218.3z M139.9,217.9
			c-0.1-0.8,0.5-1.4,1.2-1.5l0,0c0.7-0.1,1.4,0.5,1.5,1.2l0,0c0.1,0.7-0.5,1.4-1.2,1.5l0,0c0,0-0.1,0-0.1,0l0,0
			C140.5,219.1,139.9,218.6,139.9,217.9z M145.2,217.4c-0.1-0.7,0.4-1.4,1.2-1.5l0,0c0.7-0.1,1.4,0.4,1.5,1.2l0,0
			c0.1,0.7-0.4,1.4-1.2,1.5l0,0c-0.1,0-0.1,0-0.2,0l0,0C145.9,218.5,145.3,218,145.2,217.4z M150.5,216.7c-0.1-0.7,0.4-1.4,1.1-1.5
			l0,0l0,0l0,0c0.7-0.1,1.4,0.4,1.5,1.1l0,0c0.1,0.7-0.4,1.4-1.1,1.5l0,0c-0.1,0-0.1,0-0.2,0l0,0
			C151.2,217.8,150.6,217.3,150.5,216.7z M155.8,215.9c-0.1-0.7,0.4-1.4,1.1-1.6l0,0l0,0l0,0c0.7-0.1,1.4,0.4,1.6,1.1l0,0
			c0.1,0.7-0.4,1.4-1.1,1.6l0,0c-0.1,0-0.2,0-0.2,0l0,0C156.5,217,156,216.5,155.8,215.9z M161.1,214.9c-0.2-0.7,0.3-1.5,1-1.6l0,0
			c0,0,0,0,0,0l0,0c0.7-0.1,1.5,0.3,1.6,1.1l0,0c0.2,0.7-0.3,1.4-1,1.6l0,0c-0.1,0-0.2,0-0.3,0l0,0
			C161.8,216,161.2,215.5,161.1,214.9z M166.4,213.8c-0.2-0.7,0.3-1.5,1-1.6l0,0l0,0l0,0c0.7-0.2,1.5,0.3,1.6,1l0,0
			c0.2,0.7-0.3,1.5-1,1.6l0,0c-0.1,0-0.2,0-0.3,0l0,0C167.1,214.8,166.5,214.4,166.4,213.8z M171.6,212.5c-0.2-0.7,0.2-1.5,1-1.7
			l0,0l0,0l0,0c0.7-0.2,1.5,0.2,1.6,1l0,0c0.2,0.7-0.2,1.5-0.9,1.6l0,0c-0.1,0-0.2,0-0.4,0l0,0C172.3,213.5,171.7,213.1,171.6,212.5
			z M176.8,211.1c-0.2-0.7,0.2-1.5,0.9-1.7l0,0l0,0l0,0c0.7-0.2,1.5,0.2,1.7,0.9l0,0c0.2,0.7-0.2,1.5-0.9,1.7l0,0
			c-0.1,0-0.3,0.1-0.4,0.1l0,0C177.5,212,176.9,211.7,176.8,211.1z M181.9,209.5c-0.2-0.7,0.1-1.5,0.8-1.7l0,0l0,0l0,0
			c0.7-0.2,1.5,0.1,1.7,0.8l0,0c0.2,0.7-0.1,1.5-0.8,1.7l0,0c-0.1,0.1-0.3,0.1-0.4,0.1l0,0C182.6,210.4,182.1,210,181.9,209.5z
			 M186.9,207.7c-0.3-0.7,0.1-1.5,0.8-1.7l0,0l0,0l0,0c0.7-0.3,1.5,0.1,1.7,0.8l0,0c0.3,0.7-0.1,1.5-0.8,1.7l0,0
			c-0.1,0.1-0.3,0.1-0.5,0.1l0,0C187.7,208.6,187.2,208.3,186.9,207.7z M191.9,205.8c-0.3-0.7,0-1.5,0.7-1.8l0,0
			c0.7-0.3,1.5,0,1.8,0.7l0,0c0.3,0.7,0,1.5-0.7,1.8l0,0c-0.2,0.1-0.3,0.1-0.5,0.1l0,0C192.7,206.6,192.2,206.3,191.9,205.8z
			 M196.9,203.7c-0.3-0.7,0-1.5,0.6-1.8l0,0c0,0,0,0,0,0l0,0c0.7-0.3,1.5,0,1.8,0.6l0,0c0.3,0.7,0,1.5-0.6,1.8h0
			c-0.2,0.1-0.4,0.1-0.6,0.1l0,0C197.6,204.4,197.1,204.1,196.9,203.7z M201.7,201.3c-0.4-0.7-0.1-1.5,0.6-1.8l0,0c0,0,0,0,0,0l0,0
			c0.7-0.3,1.5-0.1,1.8,0.6l0,0c0.3,0.7,0.1,1.5-0.6,1.8l0,0c-0.2,0.1-0.4,0.2-0.6,0.2l0,0C202.4,202,201.9,201.8,201.7,201.3z
			 M206.4,198.8c-0.4-0.6-0.2-1.5,0.5-1.8l0,0l0,0l0,0c0.6-0.4,1.5-0.2,1.9,0.5l0,0c0.4,0.6,0.2,1.5-0.5,1.8h0
			c-0.2,0.1-0.5,0.2-0.7,0.2l0,0C207.1,199.4,206.7,199.2,206.4,198.8z M211,196c-0.4-0.6-0.2-1.5,0.4-1.9l0,0c0,0,0,0,0,0l0,0
			c0.6-0.4,1.5-0.2,1.9,0.4l0,0c0.4,0.6,0.2,1.5-0.4,1.9l0,0c-0.2,0.1-0.5,0.2-0.7,0.2l0,0C211.7,196.6,211.3,196.4,211,196z
			 M215.4,192.9c-0.5-0.6-0.3-1.4,0.3-1.9l0,0l0,0l0,0c0.6-0.4,1.4-0.3,1.9,0.3l0,0c0.5,0.6,0.3,1.4-0.3,1.9l0,0
			c-0.2,0.2-0.5,0.3-0.8,0.3l0,0C216.1,193.5,215.7,193.3,215.4,192.9z M219.6,189.6c-0.5-0.6-0.4-1.4,0.1-1.9l0,0l0,0l0,0
			c0.6-0.5,1.4-0.4,1.9,0.1l0,0c0.5,0.6,0.4,1.4-0.1,1.9l0,0c-0.3,0.2-0.6,0.3-0.9,0.3l0,0C220.3,190.1,219.9,189.9,219.6,189.6z
			 M223.6,186c-0.5-0.5-0.5-1.4,0-1.9l0,0c0,0,0,0,0,0l0,0c0.5-0.5,1.4-0.5,1.9,0l0,0c0.5,0.5,0.5,1.4,0,1.9l0,0
			c-0.3,0.3-0.6,0.4-1,0.4l0,0C224.2,186.4,223.9,186.3,223.6,186z M227.3,182.1c-0.6-0.5-0.7-1.3-0.2-1.9l0,0
			c0.5-0.6,1.3-0.7,1.9-0.2l0,0c0.6,0.5,0.7,1.3,0.2,1.9l0,0c-0.3,0.3-0.6,0.5-1,0.5l0,0C227.8,182.4,227.5,182.3,227.3,182.1z
			 M230.5,177.9c-0.6-0.4-0.8-1.2-0.4-1.9l0,0c0.4-0.6,1.2-0.8,1.9-0.4l0,0c0.6,0.4,0.8,1.2,0.4,1.9v0c-0.3,0.4-0.7,0.6-1.1,0.6l0,0
			C231,178.1,230.8,178,230.5,177.9z M233.3,173.3c-0.7-0.3-1-1.1-0.6-1.8l0,0c0.3-0.7,1.1-1,1.8-0.6l0,0c0.7,0.3,1,1.1,0.6,1.8l0,0
			c-0.2,0.5-0.7,0.8-1.2,0.8l0,0C233.7,173.4,233.5,173.4,233.3,173.3z M235.5,168.4c-0.7-0.2-1.1-1-0.9-1.7l0,0
			c0.2-0.7,1-1.1,1.7-0.9l0,0c0.7,0.2,1.1,1,0.9,1.7l0,0c-0.2,0.6-0.7,0.9-1.3,0.9l0,0C235.8,168.5,235.7,168.4,235.5,168.4z
			 M237,163.2c-0.7-0.1-1.2-0.8-1.1-1.5l0,0c0.1-0.7,0.8-1.2,1.5-1.1l0,0c0.7,0.1,1.2,0.8,1.1,1.5l0,0c-0.1,0.7-0.7,1.1-1.3,1.1l0,0
			C237.1,163.3,237.1,163.3,237,163.2z M237.4,157.9c-0.7-0.1-1.2-0.8-1.1-1.5l0,0c0.1-0.7,0.8-1.2,1.5-1.1l0,0
			c0.7,0.1,1.2,0.8,1.1,1.5l0,0c-0.1,0.7-0.7,1.1-1.3,1.1l0,0C237.6,157.9,237.5,157.9,237.4,157.9z"/>
	</g>
	<g>
		<path fill="#FFFFFF" d="M235.9,151.4L235.9,151.4L235.9,151.4c-0.1-0.7,0.4-1.4,1.1-1.5l0,0c0.7-0.1,1.4,0.4,1.5,1.1v0
			c0.1,0.7-0.4,1.4-1.1,1.5l0,0c-0.1,0-0.1,0-0.2,0l0,0C236.6,152.6,236,152.1,235.9,151.4z M234.7,146.4
			C234.7,146.4,234.7,146.4,234.7,146.4L234.7,146.4c-0.2-0.7,0.2-1.5,0.9-1.7l0,0c0.7-0.2,1.5,0.2,1.7,0.9l0,0
			c0.2,0.7-0.2,1.5-0.9,1.7l0,0c-0.1,0-0.3,0.1-0.4,0.1l0,0C235.4,147.4,234.9,147,234.7,146.4z M232.8,141.6
			C232.8,141.6,232.8,141.6,232.8,141.6L232.8,141.6c-0.3-0.7,0-1.5,0.6-1.8l0,0c0.7-0.3,1.5,0,1.8,0.6l0,0c0.3,0.7,0,1.5-0.6,1.8
			l0,0c-0.2,0.1-0.4,0.1-0.6,0.1l0,0C233.5,142.4,233.1,142.1,232.8,141.6z M230.3,137.1L230.3,137.1L230.3,137.1
			c-0.4-0.6-0.2-1.5,0.4-1.9l0,0c0.6-0.4,1.5-0.2,1.9,0.4l0,0c0.4,0.6,0.2,1.5-0.4,1.9l0,0c-0.2,0.1-0.5,0.2-0.7,0.2l0,0
			C231,137.7,230.6,137.5,230.3,137.1z M227.2,132.9L227.2,132.9L227.2,132.9c-0.5-0.6-0.4-1.4,0.2-1.9l0,0c0.6-0.5,1.4-0.4,1.9,0.2
			l0,0c0.5,0.6,0.4,1.4-0.2,1.9l0,0c-0.2,0.2-0.5,0.3-0.8,0.3l0,0C227.9,133.4,227.5,133.2,227.2,132.9z M223.8,129
			c-0.5-0.5-0.5-1.4,0-1.9l0,0c0.5-0.5,1.4-0.5,1.9,0v0c0.5,0.5,0.5,1.4,0,1.9l0,0c-0.3,0.2-0.6,0.4-0.9,0.4l0,0
			C224.4,129.4,224.1,129.3,223.8,129z M220,125.4c-0.6-0.5-0.6-1.3-0.1-1.9l0,0c0.5-0.6,1.3-0.6,1.9-0.1l0,0
			c0.6,0.5,0.6,1.4,0.1,1.9l0,0c-0.3,0.3-0.6,0.5-1,0.5l0,0C220.6,125.7,220.2,125.6,220,125.4z M215.9,122L215.9,122L215.9,122
			c-0.6-0.5-0.7-1.3-0.2-1.9l0,0c0.5-0.6,1.3-0.7,1.9-0.3l0,0c0.6,0.5,0.7,1.3,0.2,1.9l0,0c-0.3,0.3-0.7,0.5-1.1,0.5l0,0
			C216.4,122.3,216.2,122.2,215.9,122z M211.6,119c-0.6-0.4-0.8-1.2-0.4-1.9l0,0c0.4-0.6,1.2-0.8,1.9-0.4l0,0
			c0.6,0.4,0.8,1.2,0.4,1.9l0,0c-0.3,0.4-0.7,0.6-1.1,0.6l0,0C212.1,119.2,211.9,119.1,211.6,119z M207.2,116.1
			c-0.7-0.4-0.9-1.2-0.5-1.9l0,0c0.4-0.6,1.2-0.8,1.8-0.5l0,0c0.6,0.4,0.8,1.2,0.5,1.9l0,0c-0.2,0.4-0.7,0.7-1.2,0.7l0,0
			C207.6,116.3,207.4,116.3,207.2,116.1z M202.5,113.5c-0.7-0.4-0.9-1.2-0.6-1.8l0,0c0.3-0.7,1.2-0.9,1.8-0.6l0,0
			c0.7,0.3,0.9,1.2,0.6,1.8l0,0c-0.2,0.5-0.7,0.7-1.2,0.7l0,0C203,113.7,202.7,113.7,202.5,113.5z M197.8,111.2
			c-0.7-0.3-1-1.1-0.6-1.8l0,0c0.3-0.7,1.1-1,1.8-0.6l0,0c0.7,0.3,1,1.1,0.6,1.8l0,0c-0.2,0.5-0.7,0.8-1.2,0.8l0,0
			C198.2,111.3,198,111.3,197.8,111.2z M193,109c-0.7-0.3-1-1.1-0.7-1.8l0,0c0.3-0.7,1.1-1,1.8-0.7l0,0c0.7,0.3,1,1.1,0.7,1.8l0,0
			c-0.2,0.5-0.7,0.8-1.2,0.8l0,0C193.3,109.1,193.1,109.1,193,109z M188.1,107c-0.7-0.3-1-1-0.8-1.7l0,0c0.3-0.7,1-1,1.7-0.8l0,0
			c0.7,0.3,1,1,0.8,1.7l0,0c-0.2,0.5-0.7,0.9-1.3,0.9l0,0C188.4,107.1,188.2,107.1,188.1,107z M183.1,105.2c-0.7-0.2-1.1-1-0.8-1.7
			l0,0c0.2-0.7,1-1.1,1.7-0.8l0,0c0.7,0.2,1.1,1,0.9,1.7l0,0c-0.2,0.6-0.7,0.9-1.3,0.9l0,0C183.3,105.3,183.2,105.3,183.1,105.2z
			 M178,103.6c-0.7-0.2-1.1-1-0.9-1.7l0,0c0.2-0.7,1-1.1,1.7-0.9l0,0c0.7,0.2,1.1,1,0.9,1.7l0,0c-0.2,0.6-0.7,0.9-1.3,0.9l0,0
			C178.3,103.7,178.1,103.6,178,103.6z M172.9,102.1c-0.7-0.2-1.1-0.9-1-1.6l0,0c0.2-0.7,0.9-1.1,1.7-1l0,0c0.7,0.2,1.1,0.9,1,1.7
			l0,0c-0.2,0.6-0.7,1-1.3,1l0,0C173.1,102.2,173,102.2,172.9,102.1z M167.7,100.8c-0.7-0.2-1.2-0.9-1-1.6l0,0
			c0.2-0.7,0.9-1.2,1.6-1l0,0c0.7,0.2,1.2,0.9,1,1.6l0,0c-0.2,0.6-0.7,1-1.3,1l0,0C167.9,100.9,167.8,100.9,167.7,100.8z
			 M162.5,99.7L162.5,99.7L162.5,99.7c-0.7-0.1-1.2-0.9-1-1.6l0,0c0.1-0.7,0.9-1.2,1.6-1.1l0,0c0.7,0.2,1.2,0.9,1,1.6l0,0
			c-0.1,0.6-0.7,1.1-1.3,1.1l0,0C162.7,99.7,162.6,99.7,162.5,99.7z M157.3,98.7c-0.7-0.1-1.2-0.8-1.1-1.6l0,0
			c0.1-0.7,0.8-1.2,1.6-1.1l0,0c0.7,0.1,1.2,0.8,1.1,1.6l0,0c-0.1,0.6-0.7,1.1-1.3,1.1l0,0C157.5,98.7,157.4,98.7,157.3,98.7z
			 M152.1,97.8c-0.7-0.1-1.2-0.8-1.1-1.5l0,0c0.1-0.7,0.8-1.2,1.5-1.1h0c0.7,0.1,1.2,0.8,1.1,1.5l0,0c-0.1,0.7-0.7,1.1-1.3,1.1l0,0
			C152.2,97.8,152.1,97.8,152.1,97.8z M146.8,97.1c-0.7-0.1-1.3-0.8-1.2-1.5l0,0c0.1-0.7,0.8-1.3,1.5-1.2l0,0
			c0.7,0.1,1.3,0.8,1.2,1.5l0,0c-0.1,0.7-0.7,1.2-1.3,1.2l0,0C146.9,97.1,146.8,97.1,146.8,97.1z M141.5,96.5L141.5,96.5L141.5,96.5
			c-0.7-0.1-1.3-0.7-1.2-1.5l0,0c0.1-0.7,0.7-1.3,1.5-1.2l0,0c0.8,0.1,1.3,0.7,1.2,1.5l0,0c-0.1,0.7-0.6,1.2-1.3,1.2l0,0
			C141.6,96.5,141.5,96.5,141.5,96.5z M136.2,96C136.2,96,136.2,96,136.2,96L136.2,96c-0.8,0-1.3-0.7-1.2-1.4l0,0
			c0-0.8,0.7-1.3,1.4-1.2l0,0c0.7,0.1,1.3,0.7,1.2,1.5l0,0C137.6,95.5,137,96,136.2,96L136.2,96C136.3,96,136.2,96,136.2,96z
			 M130.9,95.7c-0.8,0-1.3-0.7-1.3-1.4l0,0c0-0.7,0.7-1.3,1.4-1.3l0,0c0.8,0,1.3,0.7,1.3,1.4l0,0C132.3,95.2,131.7,95.7,130.9,95.7
			L130.9,95.7C130.9,95.7,130.9,95.7,130.9,95.7z M125.6,95.5c-0.8,0-1.3-0.6-1.3-1.4l0,0c0-0.8,0.6-1.3,1.4-1.3l0,0
			c0.8,0,1.3,0.6,1.3,1.4l0,0C126.9,94.9,126.3,95.5,125.6,95.5L125.6,95.5C125.6,95.5,125.6,95.5,125.6,95.5z"/>
	</g>
	<g>
		<path fill="#FFFFFF" d="M2.6,152.3c-0.7-0.1-1.2-0.8-1.1-1.5l0,0c0.1-0.7,0.8-1.2,1.5-1.1l0,0c0.7,0.1,1.2,0.8,1.1,1.5l0,0
			c-0.1,0.7-0.7,1.1-1.3,1.1l0,0C2.7,152.3,2.6,152.3,2.6,152.3z M3.6,147.1c-0.7-0.2-1.1-1-0.9-1.7l0,0c0.2-0.7,1-1.1,1.7-0.9l0,0
			c0.7,0.2,1.1,1,0.9,1.7l0,0l0,0l0,0c-0.2,0.6-0.7,0.9-1.3,0.9l0,0C3.9,147.1,3.8,147.1,3.6,147.1z M5.5,142
			c-0.7-0.3-1-1.1-0.6-1.8l0,0c0.3-0.7,1.1-1,1.8-0.6l0,0c0.7,0.3,0.9,1.1,0.6,1.8l0,0c-0.2,0.5-0.7,0.8-1.2,0.8l0,0
			C5.9,142.2,5.7,142.1,5.5,142z M8,137.3c-0.6-0.4-0.8-1.2-0.4-1.9v0c0.4-0.6,1.2-0.8,1.9-0.4l0,0c0.6,0.4,0.8,1.2,0.4,1.9l0,0
			c0,0,0,0,0,0l0,0c-0.3,0.4-0.7,0.6-1.1,0.6l0,0C8.5,137.5,8.2,137.4,8,137.3z M11,132.9c-0.6-0.5-0.7-1.3-0.2-1.9l0,0
			c0.5-0.6,1.3-0.7,1.9-0.2l0,0c0.6,0.5,0.7,1.3,0.2,1.9l0,0c-0.3,0.3-0.7,0.5-1.1,0.5l0,0C11.6,133.2,11.3,133.1,11,132.9z
			 M14.5,128.8c-0.5-0.5-0.6-1.4,0-1.9l0,0c0.5-0.5,1.4-0.5,1.9,0l0,0c0.5,0.5,0.5,1.4,0,1.9l0,0c-0.3,0.3-0.6,0.4-1,0.4l0,0
			C15.1,129.2,14.8,129.1,14.5,128.8z M18.3,125c-0.5-0.6-0.4-1.4,0.1-1.9l0,0c0.6-0.5,1.4-0.4,1.9,0.1l0,0c0.5,0.6,0.4,1.4-0.1,1.9
			l0,0c-0.3,0.2-0.6,0.3-0.9,0.3l0,0C19,125.5,18.6,125.4,18.3,125z M22.4,121.6c-0.5-0.6-0.3-1.4,0.3-1.9l0,0
			c0.6-0.5,1.4-0.3,1.9,0.3l0,0c0.5,0.6,0.3,1.4-0.3,1.9l0,0l0,0l0,0c-0.2,0.2-0.5,0.3-0.8,0.3l0,0
			C23.1,122.1,22.7,121.9,22.4,121.6z M26.7,118.4c-0.4-0.6-0.2-1.5,0.4-1.9l0,0c0.6-0.4,1.5-0.2,1.9,0.4l0,0
			c0.4,0.6,0.2,1.5-0.4,1.9l0,0c-0.2,0.2-0.5,0.2-0.8,0.2l0,0C27.4,119,27,118.8,26.7,118.4z M31.2,115.5c-0.4-0.6-0.2-1.5,0.5-1.9
			l0,0c0.6-0.4,1.5-0.2,1.8,0.5l0,0c0.4,0.6,0.2,1.5-0.5,1.8l0,0c-0.2,0.1-0.4,0.2-0.7,0.2l0,0C31.9,116.2,31.5,115.9,31.2,115.5z
			 M35.9,112.8c-0.3-0.7-0.1-1.5,0.6-1.8l0,0c0.7-0.3,1.5-0.1,1.8,0.6l0,0c0.3,0.7,0.1,1.5-0.6,1.8l0,0c-0.2,0.1-0.4,0.1-0.6,0.1
			l0,0C36.6,113.6,36.1,113.3,35.9,112.8z M40.7,110.4c-0.3-0.7,0-1.5,0.6-1.8l0,0c0.7-0.3,1.5,0,1.8,0.6l0,0c0.3,0.7,0,1.5-0.6,1.8
			l0,0c-0.2,0.1-0.4,0.1-0.6,0.1l0,0C41.4,111.2,40.9,110.9,40.7,110.4z M45.6,108.2c-0.3-0.7,0-1.5,0.7-1.8l0,0
			c0.7-0.3,1.5,0,1.8,0.7l0,0c0.3,0.7,0,1.5-0.7,1.8l0,0c-0.2,0.1-0.3,0.1-0.5,0.1l0,0C46.3,109,45.8,108.7,45.6,108.2z M50.5,106.1
			c-0.3-0.7,0.1-1.5,0.8-1.8l0,0c0.7-0.3,1.5,0.1,1.7,0.8l0,0c0.3,0.7-0.1,1.5-0.8,1.7l0,0c-0.1,0.1-0.3,0.1-0.5,0.1l0,0
			C51.2,107,50.7,106.7,50.5,106.1z M55.6,104.3c-0.2-0.7,0.1-1.5,0.8-1.7l0,0c0.7-0.2,1.5,0.1,1.7,0.9l0,0c0.2,0.7-0.1,1.5-0.8,1.7
			l0,0c-0.1,0.1-0.3,0.1-0.4,0.1l0,0C56.3,105.2,55.7,104.8,55.6,104.3z M60.7,102.6c-0.2-0.7,0.2-1.5,0.9-1.7l0,0
			c0.7-0.2,1.5,0.2,1.7,0.9l0,0c0.2,0.7-0.2,1.5-0.9,1.7l0,0c-0.1,0-0.3,0.1-0.4,0.1l0,0C61.4,103.6,60.8,103.2,60.7,102.6z
			 M65.8,101.1c-0.2-0.7,0.2-1.5,1-1.6l0,0c0.7-0.2,1.5,0.2,1.6,0.9l0,0c0.2,0.7-0.2,1.5-1,1.7l0,0l0,0l0,0c-0.1,0-0.2,0-0.4,0l0,0
			C66.5,102.1,66,101.7,65.8,101.1z M71,99.7c-0.2-0.7,0.3-1.5,1-1.6l0,0c0.7-0.2,1.5,0.3,1.6,1l0,0c0.2,0.7-0.3,1.4-1,1.6l0,0
			c-0.1,0-0.2,0-0.3,0l0,0C71.7,100.8,71.1,100.4,71,99.7z M76.2,98.5c-0.1-0.7,0.3-1.4,1.1-1.6l0,0c0.7-0.2,1.4,0.3,1.6,1l0,0
			c0.1,0.7-0.3,1.5-1.1,1.6l0,0c-0.1,0-0.2,0-0.3,0l0,0C76.9,99.6,76.4,99.2,76.2,98.5z M81.5,97.5c-0.1-0.7,0.4-1.4,1.1-1.6l0,0
			c0.7-0.1,1.4,0.4,1.6,1.1l0,0c0.1,0.7-0.4,1.4-1.1,1.6l0,0c-0.1,0-0.2,0-0.2,0l0,0C82.2,98.6,81.6,98.2,81.5,97.5z M86.8,96.6
			c-0.1-0.7,0.4-1.4,1.1-1.5l0,0c0.7-0.1,1.4,0.4,1.5,1.1l0,0c0.1,0.7-0.4,1.4-1.1,1.5l0,0c-0.1,0-0.1,0-0.2,0l0,0
			C87.5,97.8,86.9,97.3,86.8,96.6z M92.1,95.9c-0.1-0.7,0.4-1.4,1.2-1.5l0,0c0.7-0.1,1.4,0.4,1.5,1.2l0,0c0.1,0.8-0.4,1.4-1.2,1.5
			l0,0l0,0l0,0c-0.1,0-0.1,0-0.2,0l0,0C92.8,97,92.2,96.5,92.1,95.9z M97.4,95.2c-0.1-0.7,0.5-1.4,1.2-1.5l0,0
			c0.7-0.1,1.4,0.5,1.5,1.2l0,0c0.1,0.8-0.5,1.4-1.2,1.5l0,0l0,0l0,0c0,0-0.1,0-0.1,0l0,0C98.1,96.5,97.5,95.9,97.4,95.2z
			 M102.8,94.8c0-0.7,0.5-1.4,1.2-1.4l0,0c0.7-0.1,1.4,0.5,1.4,1.2l0,0c0.1,0.7-0.5,1.4-1.2,1.4l0,0c0,0-0.1,0-0.1,0l0,0
			C103.4,96,102.8,95.5,102.8,94.8z M108.1,94.4c0-0.7,0.5-1.4,1.3-1.4l0,0c0.7,0,1.4,0.5,1.4,1.3l0,0c0,0.8-0.5,1.4-1.3,1.4l0,0
			c0,0,0,0-0.1,0l0,0C108.8,95.7,108.2,95.1,108.1,94.4z M113.5,94.2c0-0.7,0.6-1.4,1.3-1.4l0,0c0.8,0,1.4,0.6,1.4,1.3l0,0
			c0,0.8-0.6,1.4-1.3,1.4l0,0c0,0,0,0,0,0l0,0C114.1,95.5,113.5,94.9,113.5,94.2z"/>
	</g>
	<g>
		<path fill="#FFFFFF" d="M114.4,220.1c-0.8,0-1.3-0.6-1.3-1.4l0,0c0-0.7,0.6-1.3,1.4-1.3l0,0c0,0,0,0,0,0l0,0
			c0.8,0,1.3,0.6,1.3,1.4l0,0C115.7,219.5,115.1,220.1,114.4,220.1L114.4,220.1C114.4,220.1,114.4,220.1,114.4,220.1z M119.8,220.1
			c-0.8,0-1.3-0.6-1.3-1.4l0,0c0-0.7,0.6-1.3,1.4-1.3l0,0c0,0,0,0,0,0l0,0c0.8,0,1.3,0.6,1.3,1.4l0,0
			C121.1,219.6,120.5,220.1,119.8,220.1L119.8,220.1C119.8,220.1,119.8,220.1,119.8,220.1z M109,219.9c-0.7,0-1.3-0.7-1.3-1.4l0,0
			c0-0.7,0.7-1.3,1.4-1.3l0,0l0,0l0,0c0.8,0,1.3,0.7,1.3,1.4l0,0C110.4,219.3,109.8,219.9,109,219.9L109,219.9
			C109,219.9,109,219.9,109,219.9z M103.6,219.5c-0.7,0-1.3-0.7-1.2-1.4l0,0c0.1-0.8,0.7-1.3,1.5-1.2l0,0l0,0l0,0
			c0.7,0,1.3,0.7,1.2,1.4l0,0c-0.1,0.7-0.6,1.3-1.4,1.2l0,0C103.7,219.5,103.6,219.5,103.6,219.5z M98.2,219.1
			c-0.7-0.1-1.3-0.7-1.2-1.5l0,0c0.1-0.7,0.7-1.3,1.5-1.2l0,0c0.8,0.1,1.3,0.7,1.2,1.5l0,0c-0.1,0.7-0.7,1.2-1.4,1.2l0,0
			C98.3,219.1,98.3,219.1,98.2,219.1z M92.9,218.5c-0.7-0.1-1.3-0.8-1.2-1.5l0,0c0.1-0.7,0.8-1.3,1.5-1.2l0,0c0,0,0,0,0,0l0,0
			c0.7,0.1,1.3,0.8,1.2,1.5l0,0c-0.1,0.7-0.7,1.2-1.3,1.2l0,0C93,218.5,92.9,218.5,92.9,218.5z M87.5,217.8
			c-0.7-0.1-1.2-0.8-1.1-1.5l0,0c0.1-0.7,0.8-1.2,1.5-1.1l0,0c0.7,0.1,1.2,0.8,1.1,1.5l0,0c-0.1,0.7-0.7,1.1-1.3,1.1l0,0
			C87.7,217.8,87.6,217.8,87.5,217.8z M82.2,216.9c-0.7-0.1-1.2-0.8-1.1-1.6l0,0c0.1-0.7,0.8-1.2,1.6-1.1l0,0
			c0.7,0.1,1.2,0.8,1.1,1.6l0,0c-0.1,0.7-0.7,1.1-1.3,1.1l0,0C82.4,216.9,82.3,216.9,82.2,216.9z M76.9,215.9
			c-0.7-0.2-1.2-0.9-1-1.6l0,0c0.1-0.7,0.9-1.2,1.6-1.1l0,0l0,0l0,0c0.7,0.2,1.2,0.9,1,1.6l0,0c-0.1,0.6-0.7,1.1-1.3,1.1l0,0
			C77.1,215.9,77,215.9,76.9,215.9z M71.6,214.7c-0.7-0.2-1.2-0.9-1-1.6l0,0c0.2-0.7,0.9-1.2,1.6-1l0,0c0.7,0.2,1.2,0.9,1,1.6l0,0
			c-0.1,0.6-0.7,1-1.3,1l0,0C71.8,214.7,71.7,214.7,71.6,214.7z M66.4,213.4c-0.7-0.2-1.1-0.9-1-1.7l0,0c0.2-0.7,0.9-1.1,1.7-1l0,0
			c0.7,0.2,1.1,0.9,1,1.7l0,0c-0.2,0.6-0.7,1-1.3,1l0,0C66.6,213.4,66.5,213.4,66.4,213.4z M61.2,211.9c-0.7-0.2-1.1-1-0.9-1.7l0,0
			c0.2-0.7,1-1.1,1.7-0.9l0,0c0.7,0.2,1.1,1,0.9,1.7l0,0c-0.2,0.6-0.7,1-1.3,1l0,0C61.5,211.9,61.3,211.9,61.2,211.9z M56.1,210.2
			c-0.7-0.2-1.1-1-0.8-1.7l0,0c0.2-0.7,1-1.1,1.7-0.8l0,0c0.7,0.2,1.1,1,0.9,1.7l0,0c-0.2,0.6-0.7,0.9-1.3,0.9l0,0
			C56.4,210.3,56.2,210.3,56.1,210.2z M51,208.4c-0.7-0.3-1-1-0.8-1.8l0,0c0.3-0.7,1.1-1,1.8-0.8l0,0c0.7,0.3,1,1,0.8,1.7l0,0
			c-0.2,0.5-0.7,0.9-1.3,0.9l0,0C51.3,208.5,51.1,208.5,51,208.4z M46,206.4c-0.7-0.3-1-1.1-0.7-1.8l0,0c0.3-0.7,1.1-1,1.8-0.7l0,0
			c0.7,0.3,1,1.1,0.7,1.8l0,0c-0.2,0.5-0.7,0.8-1.2,0.8l0,0C46.3,206.5,46.1,206.4,46,206.4z M41,204.2c-0.7-0.3-1-1.1-0.6-1.8l0,0
			c0.3-0.7,1.1-1,1.8-0.6l0,0c0.7,0.3,0.9,1.1,0.6,1.8l0,0c-0.2,0.5-0.7,0.8-1.2,0.8l0,0C41.4,204.3,41.2,204.2,41,204.2z
			 M36.2,201.7c-0.7-0.4-0.9-1.2-0.6-1.8l0,0c0.3-0.7,1.2-0.9,1.8-0.6l0,0c0.7,0.3,0.9,1.2,0.6,1.8l0,0c-0.2,0.5-0.7,0.7-1.2,0.7
			l0,0C36.6,201.9,36.4,201.8,36.2,201.7z M31.5,199.1L31.5,199.1c-0.6-0.4-0.9-1.2-0.5-1.8l0,0c0.4-0.6,1.2-0.9,1.8-0.5l0,0l0,0
			l0,0c0.7,0.4,0.9,1.2,0.5,1.9l0,0c-0.3,0.4-0.7,0.7-1.2,0.7l0,0C31.9,199.3,31.7,199.2,31.5,199.1z M26.9,196.2
			c-0.6-0.4-0.8-1.3-0.4-1.9l0,0c0.4-0.6,1.2-0.8,1.9-0.4l0,0c0.6,0.4,0.8,1.2,0.4,1.9l0,0c-0.3,0.4-0.7,0.6-1.1,0.6l0,0
			C27.4,196.4,27.1,196.3,26.9,196.2z M22.4,193c-0.6-0.5-0.7-1.3-0.2-1.9l0,0c0.4-0.6,1.3-0.7,1.9-0.2l0,0l0,0l0,0
			c0.6,0.5,0.7,1.3,0.2,1.9l0,0c-0.3,0.4-0.7,0.5-1.1,0.5l0,0C23,193.3,22.7,193.2,22.4,193z M18.2,189.6c-0.6-0.5-0.6-1.4-0.1-1.9
			l0,0c0.5-0.6,1.3-0.6,1.9-0.1l0,0l0,0l0,0c0.6,0.5,0.6,1.3,0.1,1.9l0,0c-0.3,0.3-0.6,0.5-1,0.5l0,0
			C18.8,189.9,18.5,189.8,18.2,189.6z M14.3,185.8c-0.5-0.5-0.5-1.4,0-1.9l0,0c0.5-0.5,1.4-0.5,1.9,0l0,0c0.5,0.5,0.5,1.4,0,1.9l0,0
			c-0.3,0.2-0.6,0.4-0.9,0.4l0,0C14.9,186.2,14.5,186.1,14.3,185.8z M10.6,181.7L10.6,181.7c-0.5-0.6-0.4-1.4,0.2-1.9l0,0
			c0.6-0.5,1.4-0.4,1.9,0.2l0,0l0,0l0,0c0.5,0.6,0.4,1.4-0.2,1.9l0,0c-0.2,0.2-0.6,0.3-0.8,0.3l0,0C11.3,182.2,10.9,182,10.6,181.7z
			 M7.4,177.2L7.4,177.2c-0.4-0.6-0.2-1.5,0.4-1.9l0,0c0.6-0.4,1.5-0.2,1.9,0.4l0,0c0.4,0.6,0.2,1.5-0.4,1.9l0,0
			c-0.2,0.1-0.5,0.2-0.7,0.2l0,0C8.1,177.9,7.7,177.6,7.4,177.2z M4.7,172.4L4.7,172.4c-0.3-0.7,0-1.5,0.6-1.8l0,0
			c0.7-0.3,1.5,0,1.8,0.6l0,0c0,0,0,0,0,0l0,0c0.3,0.7,0,1.5-0.6,1.8l0,0c-0.2,0.1-0.4,0.1-0.6,0.1l0,0C5.5,173.2,5,172.9,4.7,172.4
			z M2.7,167.3L2.7,167.3c-0.2-0.7,0.2-1.5,0.9-1.7l0,0c0.7-0.2,1.5,0.2,1.7,0.9l0,0c0.2,0.7-0.2,1.5-0.9,1.7l0,0
			c-0.1,0-0.3,0.1-0.4,0.1l0,0C3.4,168.2,2.9,167.9,2.7,167.3z M1.4,161.9L1.4,161.9c-0.1-0.7,0.4-1.4,1.1-1.6l0,0
			c0.7-0.1,1.4,0.4,1.5,1.1l0,0c0.1,0.7-0.4,1.4-1.1,1.5l0,0c-0.1,0-0.1,0-0.2,0l0,0C2.1,163,1.5,162.5,1.4,161.9z M1,156.6L1,156.6
			c-0.1-0.7,0.4-1.4,1.1-1.6l0,0c0.7-0.1,1.4,0.4,1.5,1.1l0,0c0.1,0.7-0.4,1.4-1.1,1.5l0,0c-0.1,0-0.1,0-0.2,0l0,0
			C1.7,157.7,1.1,157.2,1,156.6z"/>
	</g>
	<g>
		<path fill="#FFFFFF" d="M124,209.3c0-0.8,0.6-1.4,1.3-1.4l0,0l0,0l0,0c0.7,0,1.4,0.6,1.4,1.3l0,0c0,0.8-0.6,1.4-1.3,1.4l0,0
			c0,0,0,0,0,0l0,0C124.6,210.6,124,210,124,209.3z M129.3,209.1c0-0.8,0.5-1.4,1.3-1.4l0,0c0.7-0.1,1.4,0.5,1.4,1.3l0,0
			c0,0.7-0.5,1.4-1.3,1.4l0,0c0,0,0,0-0.1,0l0,0C130,210.4,129.4,209.8,129.3,209.1z M134.7,208.8c-0.1-0.7,0.5-1.4,1.2-1.5l0,0l0,0
			l0,0c0.8-0.1,1.4,0.5,1.5,1.2l0,0c0.1,0.8-0.5,1.4-1.2,1.5l0,0c0,0-0.1,0-0.1,0l0,0C135.3,210,134.7,209.5,134.7,208.8z
			 M140,208.3c-0.1-0.7,0.4-1.4,1.2-1.5l0,0c0.7-0.1,1.4,0.4,1.5,1.2l0,0c0.1,0.7-0.5,1.4-1.2,1.5l0,0c-0.1,0-0.1,0-0.2,0l0,0
			C140.7,209.5,140.1,209,140,208.3z M145.3,207.6c-0.1-0.7,0.4-1.4,1.1-1.5l0,0l0,0l0,0c0.7-0.1,1.4,0.4,1.5,1.1l0,0
			c0.1,0.7-0.4,1.4-1.1,1.5l0,0c-0.1,0-0.1,0-0.2,0l0,0C146,208.8,145.4,208.3,145.3,207.6z M150.6,206.8c-0.1-0.7,0.4-1.4,1.1-1.6
			l0,0c0.7-0.1,1.4,0.4,1.6,1.1l0,0c0.1,0.7-0.4,1.4-1.1,1.6l0,0c-0.1,0-0.2,0-0.2,0l0,0C151.3,207.9,150.7,207.5,150.6,206.8z
			 M155.8,205.8c-0.2-0.7,0.3-1.5,1-1.6l0,0l0,0l0,0c0.7-0.2,1.4,0.3,1.6,1l0,0c0.2,0.7-0.3,1.4-1,1.6l0,0c-0.1,0-0.2,0-0.3,0l0,0
			C156.5,206.9,156,206.5,155.8,205.8z M161.1,204.7c-0.2-0.7,0.3-1.5,1-1.6l0,0l0,0l0,0c0.7-0.2,1.5,0.3,1.6,1l0,0
			c0.2,0.7-0.3,1.5-1,1.6l0,0c-0.1,0-0.2,0-0.3,0l0,0C161.8,205.7,161.2,205.3,161.1,204.7z M166.2,203.3c-0.2-0.7,0.2-1.5,0.9-1.7
			l0,0l0,0l0,0c0.7-0.2,1.5,0.2,1.7,0.9l0,0c0.2,0.7-0.2,1.5-0.9,1.7l0,0c-0.1,0-0.2,0.1-0.4,0.1l0,0
			C166.9,204.3,166.4,203.9,166.2,203.3z M171.4,201.8c-0.2-0.7,0.2-1.5,0.9-1.7l0,0c0,0,0,0,0,0l0,0c0.7-0.2,1.5,0.2,1.7,0.9l0,0
			c0.2,0.7-0.2,1.5-0.9,1.7l0,0c-0.1,0-0.3,0.1-0.4,0.1l0,0C172.1,202.8,171.5,202.4,171.4,201.8z M176.4,200.1
			c-0.3-0.7,0.1-1.5,0.8-1.7l0,0l0,0l0,0c0.7-0.3,1.5,0.1,1.7,0.8l0,0c0.3,0.7-0.1,1.5-0.8,1.7l0,0c-0.2,0.1-0.3,0.1-0.5,0.1l0,0
			C177.1,201,176.6,200.6,176.4,200.1z M181.4,198.2c-0.3-0.7,0-1.5,0.7-1.8l0,0l0,0l0,0c0.7-0.3,1.5,0,1.8,0.7l0,0
			c0.3,0.7,0,1.5-0.7,1.8h0c-0.2,0.1-0.4,0.1-0.5,0.1l0,0C182.1,199,181.6,198.7,181.4,198.2z M186.3,196c-0.3-0.7,0-1.5,0.6-1.8
			l0,0c0.7-0.3,1.5,0,1.8,0.6l0,0c0.3,0.7,0,1.5-0.6,1.8l0,0c-0.2,0.1-0.4,0.1-0.6,0.1l0,0C187,196.8,186.5,196.5,186.3,196z
			 M191.1,193.6c-0.4-0.7-0.1-1.5,0.5-1.8l0,0c0.7-0.4,1.5-0.1,1.8,0.5l0,0c0.4,0.7,0.1,1.5-0.5,1.8l0,0c-0.2,0.1-0.4,0.2-0.7,0.2
			l0,0C191.8,194.3,191.3,194.1,191.1,193.6z M195.7,191c-0.4-0.6-0.2-1.5,0.4-1.9l0,0l0,0l0,0c0.6-0.4,1.5-0.2,1.9,0.4l0,0
			c0.4,0.6,0.2,1.5-0.4,1.9l0,0c-0.2,0.1-0.5,0.2-0.7,0.2l0,0C196.4,191.6,196,191.4,195.7,191z M200.2,188
			c-0.5-0.6-0.3-1.4,0.3-1.9l0,0c0.6-0.5,1.5-0.3,1.9,0.3l0,0c0.4,0.6,0.3,1.5-0.3,1.9l0,0c-0.2,0.2-0.5,0.3-0.8,0.3l0,0
			C200.8,188.6,200.4,188.4,200.2,188z M204.4,184.8c-0.5-0.6-0.4-1.4,0.1-1.9l0,0c0.6-0.5,1.4-0.4,1.9,0.1l0,0
			c0.5,0.6,0.4,1.4-0.1,1.9l0,0c-0.3,0.2-0.6,0.3-0.9,0.3l0,0C205.1,185.3,204.7,185.1,204.4,184.8z M208.4,181.2
			c-0.5-0.5-0.6-1.4,0-1.9l0,0c0,0,0,0,0,0l0,0c0.5-0.5,1.4-0.6,1.9,0l0,0c0.5,0.5,0.6,1.4,0.1,1.9l0,0c-0.3,0.3-0.6,0.4-1,0.4l0,0
			C209,181.6,208.6,181.4,208.4,181.2z M211.9,177.2c-0.6-0.5-0.7-1.3-0.2-1.9l0,0l0,0l0,0c0.4-0.6,1.3-0.7,1.9-0.3l0,0
			c0.6,0.5,0.7,1.3,0.3,1.9l0,0c-0.3,0.3-0.7,0.5-1.1,0.5l0,0C212.5,177.5,212.2,177.4,211.9,177.2z M215,172.9
			c-0.7-0.4-0.9-1.2-0.5-1.9l0,0c0.4-0.6,1.2-0.9,1.8-0.5l0,0c0.7,0.4,0.9,1.2,0.5,1.8l0,0c-0.2,0.4-0.7,0.7-1.2,0.7l0,0
			C215.5,173.1,215.3,173,215,172.9z M217.5,168.2c-0.7-0.3-1-1-0.8-1.8l0,0c0.3-0.7,1-1,1.7-0.8l0,0c0.7,0.3,1.1,1,0.8,1.7l0,0
			c-0.2,0.5-0.7,0.9-1.3,0.9l0,0C217.8,168.2,217.7,168.2,217.5,168.2z M219.2,163.1c-0.7-0.1-1.2-0.8-1.1-1.6l0,0
			c0.1-0.7,0.8-1.2,1.6-1.1l0,0c0.7,0.1,1.2,0.8,1.1,1.6l0,0c-0.1,0.7-0.7,1.1-1.3,1.1l0,0C219.4,163.1,219.3,163.1,219.2,163.1z
			 M219.7,157.8c-0.7-0.1-1.2-0.8-1.1-1.6l0,0c0.1-0.7,0.8-1.2,1.6-1.1l0,0c0.7,0.1,1.2,0.8,1.1,1.6l0,0c-0.1,0.7-0.7,1.1-1.3,1.1
			l0,0C219.9,157.8,219.8,157.8,219.7,157.8z"/>
	</g>
	<g>
		<path fill="#FFFFFF" d="M218.1,151.4c-0.1-0.7,0.3-1.4,1.1-1.6l0,0c0.7-0.1,1.4,0.3,1.6,1.1l0,0c0.1,0.7-0.3,1.4-1.1,1.6l0,0
			c-0.1,0-0.2,0-0.2,0l0,0C218.8,152.5,218.2,152,218.1,151.4z M216.7,146.5L216.7,146.5L216.7,146.5c-0.3-0.7,0.1-1.5,0.8-1.7l0,0
			c0.7-0.3,1.5,0.1,1.7,0.8l0,0c0.3,0.7-0.1,1.5-0.8,1.7l0,0c-0.1,0.1-0.3,0.1-0.5,0.1l0,0C217.5,147.4,216.9,147,216.7,146.5z
			 M214.5,141.9c-0.4-0.7-0.1-1.5,0.5-1.8l0,0c0.7-0.4,1.5-0.2,1.8,0.5l0,0c0.4,0.6,0.1,1.5-0.5,1.8l0,0c-0.2,0.1-0.4,0.2-0.7,0.2
			l0,0C215.3,142.5,214.8,142.3,214.5,141.9z M211.7,137.6L211.7,137.6L211.7,137.6c-0.5-0.6-0.3-1.4,0.3-1.9l0,0
			c0.6-0.5,1.4-0.3,1.9,0.3l0,0c0.5,0.6,0.3,1.4-0.2,1.9l0,0c-0.2,0.2-0.5,0.3-0.8,0.3l0,0C212.4,138.1,212,137.9,211.7,137.6z
			 M208.3,133.6c-0.5-0.5-0.5-1.4,0-1.9l0,0c0.5-0.5,1.4-0.5,1.9,0l0,0c0.5,0.5,0.5,1.4,0,1.9l0,0c-0.3,0.2-0.6,0.4-0.9,0.4l0,0
			C209,134,208.6,133.9,208.3,133.6z M204.6,130c-0.6-0.5-0.6-1.3-0.1-1.9l0,0c0.5-0.6,1.3-0.6,1.9-0.1l0,0c0.6,0.5,0.6,1.3,0.1,1.9
			l0,0c-0.3,0.3-0.7,0.5-1,0.5l0,0C205.1,130.3,204.8,130.2,204.6,130z M200.5,126.7L200.5,126.7L200.5,126.7
			c-0.6-0.4-0.7-1.3-0.3-1.9l0,0c0.4-0.6,1.3-0.7,1.9-0.3h0c0.6,0.4,0.7,1.3,0.3,1.9l0,0c-0.3,0.4-0.7,0.6-1.1,0.6l0,0
			C201,127,200.7,126.9,200.5,126.7z M196.1,123.8L196.1,123.8L196.1,123.8c-0.6-0.4-0.8-1.2-0.4-1.9l0,0c0.4-0.6,1.2-0.8,1.9-0.4
			l0,0c0.6,0.4,0.8,1.2,0.4,1.9l0,0c-0.2,0.4-0.7,0.6-1.1,0.6l0,0C196.6,124,196.4,123.9,196.1,123.8z M191.6,121.1
			C191.6,121.1,191.6,121.1,191.6,121.1L191.6,121.1c-0.6-0.4-0.9-1.2-0.5-1.8l0,0c0.4-0.7,1.2-0.9,1.8-0.5l0,0
			c0.6,0.4,0.9,1.2,0.5,1.8l0,0c-0.2,0.4-0.7,0.7-1.2,0.7l0,0C192,121.3,191.8,121.2,191.6,121.1z M186.9,118.7
			C186.9,118.7,186.9,118.7,186.9,118.7L186.9,118.7c-0.7-0.3-1-1.1-0.6-1.8l0,0c0.3-0.7,1.1-1,1.8-0.6l0,0c0.7,0.3,1,1.1,0.6,1.8
			l0,0c-0.2,0.5-0.7,0.8-1.2,0.8l0,0C187.3,118.8,187.1,118.8,186.9,118.7z M182.1,116.5c-0.7-0.3-1-1.1-0.7-1.8l0,0
			c0.3-0.7,1.1-1,1.8-0.7l0,0c0.7,0.3,1,1.1,0.7,1.8l0,0c-0.2,0.5-0.7,0.8-1.2,0.8l0,0C182.5,116.6,182.3,116.6,182.1,116.5z
			 M177.2,114.5c-0.7-0.3-1-1-0.8-1.7l0,0c0.3-0.7,1-1.1,1.7-0.8l0,0c0.7,0.3,1,1,0.8,1.7l0,0c-0.2,0.5-0.7,0.9-1.3,0.9l0,0
			C177.5,114.6,177.4,114.6,177.2,114.5z M172.2,112.8c-0.7-0.2-1.1-1-0.9-1.7l0,0c0.2-0.7,1-1.1,1.7-0.9l0,0c0.7,0.2,1.1,1,0.9,1.7
			l0,0c-0.2,0.6-0.7,0.9-1.3,0.9l0,0C172.5,112.8,172.4,112.8,172.2,112.8z M167.2,111.2c-0.7-0.2-1.1-0.9-0.9-1.7l0,0
			c0.2-0.7,1-1.1,1.7-0.9l0,0c0.7,0.2,1.1,1,0.9,1.7l0,0c-0.2,0.6-0.7,1-1.3,1l0,0C167.4,111.3,167.3,111.3,167.2,111.2z M162,109.9
			c-0.7-0.2-1.2-0.9-1-1.6l0,0c0.2-0.7,0.9-1.2,1.6-1l0,0c0.7,0.2,1.2,0.9,1,1.6l0,0c-0.1,0.6-0.7,1-1.3,1l0,0
			C162.3,109.9,162.2,109.9,162,109.9z M156.9,108.7L156.9,108.7L156.9,108.7c-0.7-0.2-1.2-0.9-1-1.6l0,0c0.2-0.7,0.9-1.2,1.6-1l0,0
			c0.7,0.2,1.2,0.9,1,1.6l0,0c-0.1,0.6-0.7,1.1-1.3,1.1l0,0C157.1,108.7,157,108.7,156.9,108.7z M151.7,107.7
			c-0.7-0.1-1.2-0.8-1.1-1.6l0,0c0.1-0.7,0.8-1.2,1.6-1.1l0,0c0.7,0.1,1.2,0.8,1.1,1.6l0,0c-0.1,0.6-0.7,1.1-1.3,1.1l0,0
			C151.8,107.7,151.8,107.7,151.7,107.7z M146.4,106.8c-0.7-0.1-1.2-0.8-1.1-1.5l0,0c0.1-0.7,0.8-1.2,1.5-1.1l0,0
			c0.7,0.1,1.2,0.8,1.1,1.5l0,0c-0.1,0.7-0.7,1.2-1.3,1.2l0,0C146.6,106.8,146.5,106.8,146.4,106.8z M141.2,106.1
			c-0.7-0.1-1.3-0.8-1.2-1.5l0,0c0.1-0.7,0.8-1.3,1.5-1.2l0,0c0.7,0.1,1.3,0.8,1.2,1.5l0,0c-0.1,0.7-0.7,1.2-1.3,1.2l0,0
			C141.3,106.1,141.2,106.1,141.2,106.1z M135.9,105.6c-0.7-0.1-1.3-0.7-1.2-1.5l0,0c0.1-0.7,0.7-1.3,1.5-1.2h0
			c0.7,0.1,1.3,0.7,1.2,1.5l0,0c-0.1,0.7-0.7,1.2-1.3,1.2l0,0C136,105.6,135.9,105.6,135.9,105.6z M130.6,105.2
			c-0.7,0-1.3-0.7-1.3-1.4l0,0c0-0.7,0.7-1.3,1.4-1.3l0,0c0.8,0,1.3,0.7,1.3,1.4l0,0C132,104.7,131.4,105.2,130.6,105.2L130.6,105.2
			C130.7,105.2,130.6,105.2,130.6,105.2z M125.3,105L125.3,105L125.3,105c-0.7,0-1.3-0.6-1.3-1.4l0,0c0-0.8,0.6-1.3,1.4-1.3l0,0
			c0.7,0,1.3,0.6,1.3,1.4l0,0C126.7,104.4,126.1,105,125.3,105L125.3,105C125.3,105,125.3,105,125.3,105z"/>
	</g>
	<g>
		<path fill="#FFFFFF" d="M20.3,152.4c-0.7-0.1-1.2-0.8-1.1-1.6l0,0c0.1-0.7,0.9-1.2,1.6-1.1l0,0c0.7,0.1,1.2,0.8,1.1,1.6l0,0
			c-0.1,0.7-0.7,1.1-1.3,1.1l0,0C20.5,152.5,20.4,152.5,20.3,152.4z M21.5,147.3c-0.7-0.3-1-1-0.8-1.7l0,0c0.3-0.7,1-1.1,1.7-0.8
			l0,0c0.7,0.3,1,1,0.8,1.8l0,0c-0.2,0.5-0.7,0.9-1.3,0.9l0,0C21.8,147.3,21.7,147.3,21.5,147.3z M23.6,142.3
			c-0.6-0.4-0.9-1.2-0.5-1.8l0,0c0.4-0.6,1.2-0.9,1.8-0.5l0,0c0.6,0.4,0.9,1.2,0.5,1.9l0,0l0,0l0,0c-0.2,0.4-0.7,0.7-1.2,0.7l0,0
			C24.1,142.5,23.8,142.5,23.6,142.3z M26.4,137.8c-0.6-0.5-0.7-1.3-0.3-1.9l0,0c0.5-0.6,1.3-0.7,1.9-0.3l0,0
			c0.6,0.5,0.7,1.3,0.3,1.9l0,0c-0.3,0.4-0.7,0.5-1.1,0.5l0,0C26.9,138.1,26.7,138,26.4,137.8z M29.8,133.6
			c-0.5-0.5-0.6-1.4-0.1-1.9v0c0.5-0.5,1.4-0.6,1.9,0l0,0c0.5,0.5,0.6,1.4,0,1.9l0,0l0,0l0,0c-0.3,0.3-0.6,0.4-1,0.4l0,0
			C30.4,134,30,133.9,29.8,133.6z M33.5,129.9c-0.5-0.6-0.4-1.4,0.1-1.9l0,0c0.6-0.5,1.4-0.4,1.9,0.1l0,0c0.5,0.6,0.4,1.4-0.1,1.9
			l0,0l0,0l0,0c-0.2,0.2-0.6,0.3-0.9,0.3l0,0C34.2,130.3,33.8,130.2,33.5,129.9z M37.6,126.5c-0.4-0.6-0.3-1.5,0.3-1.9l0,0
			c0.6-0.4,1.4-0.3,1.9,0.3l0,0c0.4,0.6,0.3,1.4-0.3,1.9l0,0c-0.2,0.2-0.5,0.3-0.8,0.3l0,0C38.3,127,37.9,126.8,37.6,126.5z
			 M42,123.4c-0.4-0.6-0.2-1.5,0.4-1.9l0,0c0.6-0.4,1.5-0.2,1.9,0.4l0,0c0.4,0.6,0.2,1.5-0.4,1.9l0,0l0,0l0,0
			c-0.2,0.1-0.5,0.2-0.7,0.2l0,0C42.7,124,42.3,123.8,42,123.4z M46.6,120.6c-0.4-0.7-0.1-1.5,0.5-1.8l0,0c0.7-0.4,1.5-0.1,1.8,0.5
			l0,0c0.4,0.6,0.1,1.5-0.5,1.8l0,0l0,0l0,0c-0.2,0.1-0.4,0.2-0.6,0.2l0,0C47.3,121.3,46.8,121,46.6,120.6z M51.3,118
			c-0.3-0.7,0-1.5,0.6-1.8l0,0c0.7-0.3,1.5,0,1.8,0.6l0,0c0.3,0.7,0,1.5-0.6,1.8l0,0c-0.2,0.1-0.4,0.1-0.6,0.1l0,0
			C52,118.8,51.5,118.5,51.3,118z M56.1,115.8c-0.3-0.7,0-1.5,0.7-1.8l0,0c0.7-0.3,1.5,0,1.8,0.7l0,0c0.3,0.7,0,1.5-0.7,1.8l0,0
			c-0.2,0.1-0.3,0.1-0.5,0.1l0,0C56.8,116.6,56.3,116.3,56.1,115.8z M61.1,113.7c-0.3-0.7,0.1-1.5,0.8-1.7l0,0
			c0.7-0.3,1.5,0.1,1.7,0.8l0,0c0.3,0.7-0.1,1.5-0.8,1.7l0,0c-0.2,0.1-0.3,0.1-0.5,0.1l0,0C61.8,114.6,61.3,114.3,61.1,113.7z
			 M66.1,111.9c-0.2-0.7,0.2-1.5,0.9-1.7l0,0c0.7-0.2,1.5,0.2,1.7,0.9l0,0c0.2,0.7-0.2,1.5-0.9,1.7l0,0c-0.1,0-0.3,0.1-0.4,0.1l0,0
			C66.8,112.8,66.3,112.5,66.1,111.9z M71.2,110.3c-0.2-0.7,0.2-1.5,0.9-1.7l0,0c0.7-0.2,1.5,0.2,1.7,0.9l0,0
			c0.2,0.7-0.2,1.5-0.9,1.7l0,0c-0.1,0-0.2,0.1-0.4,0.1l0,0C71.9,111.3,71.3,110.9,71.2,110.3z M76.3,108.9c-0.2-0.7,0.3-1.5,1-1.6
			l0,0c0.7-0.2,1.5,0.3,1.6,1l0,0c0.2,0.7-0.3,1.5-1,1.6l0,0c-0.1,0-0.2,0-0.3,0l0,0C77,109.9,76.5,109.5,76.3,108.9z M81.5,107.6
			c-0.2-0.7,0.3-1.4,1-1.6l0,0c0.7-0.1,1.4,0.3,1.6,1l0,0c0.1,0.7-0.3,1.4-1,1.6l0,0c-0.1,0-0.2,0-0.3,0l0,0
			C82.2,108.7,81.7,108.3,81.5,107.6z M86.8,106.6c-0.1-0.7,0.4-1.4,1.1-1.6l0,0c0.7-0.1,1.4,0.4,1.6,1.1l0,0
			c0.1,0.7-0.4,1.4-1.1,1.6l0,0c-0.1,0-0.2,0-0.2,0l0,0C87.4,107.7,86.9,107.2,86.8,106.6z M92,105.7c-0.1-0.7,0.4-1.4,1.1-1.5l0,0
			c0.7-0.1,1.4,0.4,1.5,1.1l0,0c0.1,0.7-0.4,1.4-1.1,1.5l0,0c-0.1,0-0.1,0-0.2,0l0,0C92.7,106.8,92.1,106.3,92,105.7z M97.3,104.9
			c-0.1-0.7,0.4-1.4,1.2-1.5l0,0c0.8-0.1,1.4,0.4,1.5,1.2l0,0c0.1,0.7-0.4,1.4-1.2,1.5l0,0c0,0-0.1,0-0.1,0l0,0
			C98,106.1,97.4,105.6,97.3,104.9z M102.6,104.4c-0.1-0.7,0.5-1.4,1.2-1.5l0,0c0.7-0.1,1.4,0.5,1.5,1.2l0,0
			c0.1,0.7-0.5,1.4-1.2,1.5l0,0c0,0-0.1,0-0.1,0l0,0C103.3,105.6,102.7,105.1,102.6,104.4z M108,103.9c0-0.7,0.5-1.4,1.3-1.4l0,0
			c0.8,0,1.4,0.5,1.4,1.3l0,0c0,0.8-0.5,1.4-1.3,1.4l0,0c0,0,0,0-0.1,0l0,0C108.6,105.2,108,104.7,108,103.9z M113.3,103.7
			c0-0.8,0.6-1.4,1.3-1.4l0,0c0.8,0,1.4,0.6,1.4,1.3l0,0c0,0.8-0.6,1.4-1.3,1.4l0,0l0,0l0,0c0,0,0,0,0,0l0,0
			C113.9,105,113.3,104.4,113.3,103.7z"/>
	</g>
	<g>
		<path fill="#FFFFFF" d="M114.6,210.6c-0.8,0-1.3-0.6-1.3-1.4l0,0c0-0.8,0.6-1.3,1.4-1.3l0,0c0.8,0,1.3,0.6,1.3,1.4l0,0
			C116,210,115.4,210.6,114.6,210.6L114.6,210.6C114.6,210.6,114.6,210.6,114.6,210.6z M120,210.7c-0.8,0-1.3-0.6-1.3-1.4l0,0
			c0-0.8,0.6-1.3,1.4-1.3l0,0c0.8,0,1.3,0.6,1.3,1.4l0,0C121.3,210.1,120.7,210.7,120,210.7L120,210.7
			C120,210.7,120,210.7,120,210.7z M109.2,210.4c-0.7,0-1.3-0.7-1.3-1.4l0,0c0-0.7,0.7-1.3,1.4-1.3l0,0c0.8,0,1.3,0.7,1.3,1.4l0,0
			C110.6,209.8,110,210.4,109.2,210.4L109.2,210.4C109.3,210.4,109.3,210.4,109.2,210.4z M103.9,210c-0.7-0.1-1.3-0.7-1.2-1.5l0,0
			c0.1-0.7,0.7-1.3,1.5-1.2l0,0c0.7,0.1,1.3,0.7,1.2,1.5l0,0c-0.1,0.7-0.6,1.2-1.4,1.2l0,0C103.9,210,103.9,210,103.9,210z
			 M98.5,209.5L98.5,209.5c-0.7-0.1-1.3-0.8-1.2-1.5l0,0c0.1-0.7,0.8-1.3,1.5-1.2l0,0c0.7,0.1,1.3,0.8,1.2,1.5l0,0
			c-0.1,0.7-0.7,1.2-1.3,1.2l0,0C98.6,209.5,98.5,209.5,98.5,209.5z M93.2,208.8c-0.7-0.1-1.2-0.8-1.1-1.5l0,0
			c0.1-0.7,0.8-1.2,1.5-1.1l0,0c0.7,0.1,1.2,0.8,1.1,1.5l0,0c-0.1,0.7-0.7,1.2-1.3,1.2l0,0C93.3,208.8,93.2,208.8,93.2,208.8z
			 M87.8,207.9c-0.7-0.1-1.2-0.8-1.1-1.6l0,0c0.1-0.7,0.8-1.2,1.6-1.1l0,0c0.7,0.1,1.2,0.8,1.1,1.6l0,0c-0.1,0.6-0.7,1.1-1.3,1.1
			l0,0C88,207.9,87.9,207.9,87.8,207.9z M82.5,206.9c-0.7-0.2-1.2-0.9-1-1.6l0,0c0.1-0.7,0.9-1.2,1.6-1l0,0c0,0,0,0,0,0l0,0
			c0.7,0.1,1.2,0.9,1,1.6l0,0c-0.1,0.6-0.7,1.1-1.3,1.1l0,0C82.7,206.9,82.6,206.9,82.5,206.9z M77.3,205.7c-0.7-0.2-1.2-0.9-1-1.6
			l0,0c0.2-0.7,0.9-1.2,1.6-1l0,0c0.7,0.2,1.2,0.9,1,1.6l0,0c-0.2,0.6-0.7,1-1.3,1l0,0C77.5,205.7,77.4,205.7,77.3,205.7z
			 M72.1,204.3c-0.7-0.2-1.1-1-0.9-1.7l0,0c0.2-0.7,0.9-1.1,1.7-0.9l0,0l0,0l0,0c0.7,0.2,1.1,1,0.9,1.7l0,0c-0.2,0.6-0.7,1-1.3,1
			l0,0C72.3,204.3,72.2,204.3,72.1,204.3z M66.9,202.7c-0.7-0.2-1.1-1-0.9-1.7l0,0c0.2-0.7,1-1.1,1.7-0.9l0,0c0.7,0.2,1.1,1,0.9,1.7
			l0,0c-0.2,0.6-0.7,0.9-1.3,0.9l0,0C67.2,202.7,67.1,202.7,66.9,202.7z M61.8,200.9c-0.7-0.3-1.1-1-0.8-1.7l0,0
			c0.3-0.7,1-1,1.7-0.8l0,0c0.7,0.3,1,1,0.8,1.7l0,0c-0.2,0.5-0.7,0.9-1.3,0.9l0,0C62.1,201,62,200.9,61.8,200.9z M56.8,198.9
			L56.8,198.9c-0.7-0.3-1-1.1-0.7-1.8l0,0c0.3-0.7,1.1-1,1.8-0.7l0,0c0.7,0.3,1,1.1,0.7,1.8l0,0c-0.2,0.5-0.7,0.8-1.2,0.8l0,0
			C57.2,199,57,199,56.8,198.9z M51.9,196.6c-0.7-0.3-0.9-1.1-0.6-1.8l0,0c0.3-0.7,1.1-1,1.8-0.6l0,0c0.7,0.3,1,1.1,0.6,1.8l0,0
			c-0.2,0.5-0.7,0.8-1.2,0.8l0,0C52.3,196.8,52.1,196.7,51.9,196.6z M47.1,194.2L47.1,194.2c-0.6-0.4-0.9-1.2-0.5-1.8l0,0
			c0.4-0.7,1.2-0.9,1.8-0.5l0,0l0,0l0,0c0.7,0.4,0.9,1.2,0.5,1.8l0,0c-0.2,0.5-0.7,0.7-1.2,0.7l0,0
			C47.5,194.3,47.3,194.3,47.1,194.2z M42.4,191.4L42.4,191.4c-0.6-0.4-0.8-1.2-0.4-1.9l0,0c0.4-0.6,1.2-0.8,1.9-0.4l0,0l0,0l0,0
			c0.6,0.4,0.8,1.2,0.4,1.9l0,0c-0.3,0.4-0.7,0.6-1.1,0.6l0,0C42.9,191.6,42.6,191.5,42.4,191.4z M37.9,188.3
			c-0.6-0.4-0.7-1.3-0.3-1.9l0,0c0.4-0.6,1.3-0.7,1.9-0.3l0,0c0.6,0.4,0.7,1.3,0.3,1.9l0,0c-0.3,0.4-0.7,0.5-1.1,0.5l0,0
			C38.4,188.6,38.2,188.5,37.9,188.3z M33.7,184.9L33.7,184.9c-0.6-0.5-0.6-1.3-0.1-1.9l0,0c0.5-0.6,1.3-0.6,1.9-0.1l0,0l0,0l0,0
			c0.6,0.5,0.6,1.3,0.1,1.9l0,0c-0.3,0.3-0.6,0.5-1,0.5l0,0C34.2,185.2,33.9,185.1,33.7,184.9z M29.7,181.1L29.7,181.1
			c-0.5-0.5-0.5-1.4,0-1.9l0,0c0.5-0.5,1.4-0.5,1.9,0l0,0c0.5,0.5,0.5,1.4-0.1,1.9l0,0c-0.3,0.2-0.6,0.4-0.9,0.4l0,0
			C30.3,181.6,30,181.4,29.7,181.1z M26.1,177L26.1,177c-0.5-0.6-0.3-1.4,0.3-1.9l0,0c0.6-0.5,1.4-0.3,1.9,0.3l0,0
			c0.5,0.6,0.3,1.4-0.3,1.9l0,0c-0.2,0.2-0.5,0.3-0.8,0.3l0,0C26.8,177.5,26.4,177.3,26.1,177z M23.1,172.4L23.1,172.4
			c-0.4-0.6-0.1-1.5,0.5-1.8l0,0c0.6-0.4,1.5-0.1,1.8,0.5l0,0c0.4,0.6,0.1,1.5-0.5,1.8l0,0c-0.2,0.1-0.4,0.2-0.7,0.2l0,0
			C23.8,173.1,23.3,172.8,23.1,172.4z M20.7,167.4L20.7,167.4c-0.3-0.7,0.1-1.5,0.8-1.7l0,0c0.7-0.3,1.5,0.1,1.7,0.8l0,0
			c0.3,0.7-0.1,1.5-0.8,1.7l0,0c-0.2,0.1-0.3,0.1-0.5,0.1l0,0C21.4,168.2,20.9,167.9,20.7,167.4z M19.2,162L19.2,162
			c-0.1-0.7,0.4-1.4,1.1-1.6l0,0c0.7-0.1,1.4,0.3,1.6,1.1l0,0c0,0,0,0,0,0l0,0c0.1,0.7-0.4,1.4-1.1,1.6l0,0c-0.1,0-0.2,0-0.2,0l0,0
			C19.9,163.1,19.3,162.7,19.2,162z M18.7,156.7L18.7,156.7c-0.1-0.7,0.4-1.4,1.1-1.6l0,0c0.7-0.1,1.4,0.3,1.6,1.1l0,0c0,0,0,0,0,0
			l0,0c0.1,0.7-0.4,1.4-1.1,1.6l0,0c-0.1,0-0.2,0-0.2,0l0,0C19.4,157.8,18.9,157.3,18.7,156.7z"/>
	</g>
	<path fill="none" stroke="#FFFFFF" stroke-width="2.7" stroke-linecap="round" stroke-linejoin="round" d="M120,103.6L120,103.6"/>
	<g>
		<path fill="#FFFFFF" d="M124.2,182.5c0-0.8,0.5-1.4,1.3-1.4l0,0l0,0l0,0c0.8,0,1.4,0.5,1.4,1.3l0,0c0,0.7-0.5,1.4-1.3,1.4l0,0
			c0,0-0.1,0-0.1,0l0,0C124.9,183.8,124.3,183.2,124.2,182.5z M129.8,182.1c-0.1-0.7,0.4-1.4,1.2-1.5l0,0c0.7-0.1,1.4,0.4,1.5,1.2
			l0,0c0.1,0.7-0.4,1.4-1.2,1.5l0,0c0,0-0.1,0-0.2,0l0,0C130.4,183.3,129.8,182.8,129.8,182.1z M135.3,181.3
			c-0.1-0.7,0.3-1.4,1.1-1.6l0,0c0,0,0,0,0,0l0,0c0.7-0.1,1.4,0.4,1.6,1.1l0,0c0.1,0.7-0.4,1.4-1.1,1.6l0,0c-0.1,0-0.2,0-0.2,0l0,0
			C136,182.4,135.4,182,135.3,181.3z M140.7,180.2c-0.2-0.7,0.2-1.5,1-1.6l0,0l0,0l0,0c0.7-0.2,1.5,0.2,1.6,1l0,0
			c0.2,0.7-0.2,1.5-1,1.6l0,0c-0.1,0-0.2,0-0.3,0l0,0C141.5,181.2,140.9,180.8,140.7,180.2z M146.1,178.7c-0.2-0.7,0.1-1.5,0.8-1.7
			l0,0c0.7-0.2,1.5,0.1,1.7,0.8l0,0c0.2,0.7-0.1,1.5-0.8,1.7l0,0c-0.2,0-0.3,0.1-0.4,0.1l0,0C146.8,179.6,146.3,179.3,146.1,178.7z
			 M151.3,176.8c-0.3-0.7,0-1.5,0.7-1.8l0,0l0,0l0,0c0.7-0.3,1.5,0,1.8,0.7l0,0c0.3,0.7,0,1.5-0.7,1.8l0,0c-0.2,0.1-0.4,0.1-0.6,0.1
			l0,0C152.1,177.6,151.6,177.3,151.3,176.8z M156.4,174.4c-0.4-0.7-0.2-1.5,0.5-1.9l0,0l0,0l0,0c0.6-0.4,1.5-0.2,1.8,0.5l0,0
			c0.4,0.6,0.2,1.5-0.5,1.8l0,0c-0.2,0.1-0.5,0.2-0.7,0.2l0,0C157.1,175.1,156.6,174.8,156.4,174.4z M161,171.4
			c-0.5-0.6-0.4-1.4,0.2-1.9l0,0c0.6-0.5,1.4-0.4,1.9,0.2l0,0c0.5,0.6,0.4,1.4-0.2,1.9l0,0c-0.2,0.2-0.5,0.3-0.8,0.3l0,0
			C161.7,171.9,161.3,171.7,161,171.4z M165.2,167.7c-0.6-0.5-0.7-1.3-0.2-1.9l0,0c0.5-0.6,1.3-0.7,1.9-0.2l0,0
			c0.6,0.5,0.7,1.3,0.2,1.9l0,0c-0.3,0.3-0.7,0.5-1,0.5l0,0C165.7,168,165.4,167.9,165.2,167.7z M168.4,163.1
			c-0.7-0.3-1-1.1-0.8-1.8l0,0l0,0l0,0c0.3-0.7,1.1-1,1.8-0.7l0,0c0.7,0.3,1,1.1,0.7,1.8h0c-0.2,0.5-0.7,0.8-1.3,0.8l0,0
			C168.7,163.2,168.5,163.2,168.4,163.1z M169.5,157.7c-0.7-0.3-1-1.1-0.8-1.8l0,0l0,0l0,0c0.3-0.7,1.1-1,1.8-0.7l0,0
			c0.7,0.3,1,1.1,0.7,1.8h0c-0.2,0.5-0.7,0.8-1.3,0.8l0,0C169.8,157.8,169.6,157.8,169.5,157.7z"/>
	</g>
	<g>
		<path fill="#FFFFFF" d="M167.6,151.5L167.6,151.5L167.6,151.5c-0.3-0.7,0.1-1.5,0.8-1.8l0,0c0.7-0.3,1.5,0.1,1.8,0.8l0,0
			c0.3,0.7-0.1,1.5-0.8,1.8l0,0c-0.2,0.1-0.3,0.1-0.5,0.1l0,0C168.4,152.4,167.8,152.1,167.6,151.5z M165,147.1
			c-0.5-0.6-0.4-1.4,0.2-1.9l0,0c0.6-0.5,1.4-0.4,1.9,0.2l0,0c0.5,0.6,0.4,1.4-0.2,1.9l0,0c-0.2,0.2-0.5,0.3-0.8,0.3l0,0
			C165.6,147.6,165.3,147.4,165,147.1z M161.2,143.4c-0.6-0.5-0.7-1.3-0.2-1.9l0,0c0.5-0.6,1.3-0.7,1.9-0.2l0,0
			c0.6,0.5,0.7,1.3,0.2,1.9l0,0c-0.3,0.3-0.7,0.5-1,0.5l0,0C161.8,143.7,161.5,143.6,161.2,143.4z M156.8,140.3
			C156.8,140.3,156.8,140.3,156.8,140.3L156.8,140.3c-0.6-0.4-0.9-1.2-0.5-1.8l0,0c0.4-0.6,1.2-0.9,1.9-0.5v0
			c0.6,0.4,0.8,1.2,0.5,1.9l0,0c-0.2,0.4-0.7,0.7-1.2,0.7l0,0C157.3,140.5,157,140.5,156.8,140.3z M152,137.9L152,137.9L152,137.9
			c-0.7-0.3-1-1.1-0.7-1.8l0,0c0.3-0.7,1.1-1,1.8-0.7l0,0c0.7,0.3,1,1.1,0.7,1.8l0,0c-0.2,0.5-0.7,0.8-1.2,0.8l0,0
			C152.4,138,152.2,137.9,152,137.9z M147,135.9L147,135.9L147,135.9c-0.7-0.2-1.1-1-0.8-1.7l0,0c0.2-0.7,1-1.1,1.7-0.8l0,0
			c0.7,0.2,1.1,1,0.8,1.7l0,0c-0.2,0.6-0.7,0.9-1.3,0.9l0,0C147.2,135.9,147.1,135.9,147,135.9z M141.7,134.3
			c-0.7-0.2-1.2-0.9-1-1.6l0,0c0.2-0.7,0.9-1.2,1.6-1l0,0c0.7,0.2,1.2,0.9,1,1.6l0,0c-0.2,0.6-0.7,1-1.3,1l0,0
			C141.9,134.4,141.8,134.3,141.7,134.3z M136.4,133.1L136.4,133.1L136.4,133.1c-0.7-0.1-1.2-0.8-1.1-1.6l0,0
			c0.1-0.7,0.8-1.2,1.6-1.1l0,0c0.7,0.1,1.2,0.8,1.1,1.6l0,0c-0.1,0.7-0.7,1.1-1.3,1.1l0,0C136.5,133.2,136.5,133.1,136.4,133.1z
			 M131,132.3c-0.7-0.1-1.3-0.8-1.2-1.5l0,0c0.1-0.7,0.8-1.3,1.5-1.2l0,0c0.7,0.1,1.3,0.8,1.2,1.5l0,0c-0.1,0.7-0.7,1.2-1.3,1.2l0,0
			C131.1,132.3,131,132.3,131,132.3z M125.5,131.8c-0.7,0-1.3-0.7-1.3-1.4l0,0c0-0.7,0.7-1.3,1.4-1.3l0,0c0.7,0,1.3,0.7,1.3,1.4l0,0
			C126.9,131.3,126.3,131.8,125.5,131.8L125.5,131.8C125.5,131.8,125.5,131.8,125.5,131.8z"/>
	</g>
	<g>
		<path fill="#FFFFFF" d="M70.6,152.3c-0.7-0.3-1-1.1-0.7-1.8l0,0c0.3-0.7,1.1-1,1.8-0.7l0,0c0.7,0.3,1,1.1,0.7,1.8l0,0l0,0l0,0
			c-0.2,0.5-0.7,0.8-1.2,0.8l0,0C70.9,152.4,70.8,152.3,70.6,152.3z M73.1,147.3c-0.6-0.5-0.7-1.3-0.2-1.9l0,0
			c0.5-0.6,1.3-0.7,1.9-0.2l0,0c0.6,0.5,0.7,1.3,0.2,1.9l0,0l0,0l0,0c-0.3,0.3-0.7,0.5-1.1,0.5l0,0
			C73.7,147.6,73.4,147.5,73.1,147.3z M76.9,143.2c-0.5-0.6-0.4-1.4,0.2-1.9l0,0c0.6-0.5,1.4-0.4,1.9,0.2l0,0
			c0.5,0.6,0.4,1.4-0.2,1.9l0,0c-0.2,0.2-0.6,0.3-0.9,0.3l0,0C77.5,143.7,77.1,143.5,76.9,143.2z M81.3,139.9
			c-0.4-0.6-0.2-1.5,0.5-1.8l0,0c0.6-0.4,1.5-0.2,1.9,0.5l0,0c0.4,0.7,0.2,1.5-0.5,1.9l0,0c-0.2,0.1-0.4,0.2-0.7,0.2l0,0
			C82,140.5,81.6,140.3,81.3,139.9z M86.2,137.2c-0.3-0.7,0-1.5,0.7-1.8l0,0c0.7-0.3,1.5,0,1.8,0.7l0,0c0.3,0.7,0,1.5-0.7,1.8l0,0
			l0,0l0,0c-0.2,0.1-0.4,0.1-0.5,0.1l0,0C86.9,138,86.4,137.7,86.2,137.2z M91.3,135c-0.2-0.7,0.1-1.5,0.9-1.7l0,0
			c0.7-0.2,1.5,0.1,1.7,0.8l0,0c0.2,0.7-0.1,1.5-0.8,1.7l0,0l0,0l0,0c-0.1,0.1-0.3,0.1-0.4,0.1l0,0C92,135.9,91.5,135.6,91.3,135z
			 M96.6,133.3c-0.2-0.7,0.2-1.5,1-1.6l0,0c0.7-0.2,1.5,0.2,1.6,1l0,0c0.2,0.7-0.2,1.5-1,1.6l0,0c-0.1,0-0.2,0-0.3,0l0,0
			C97.3,134.4,96.8,133.9,96.6,133.3z M102.1,132.1c-0.1-0.7,0.3-1.4,1.1-1.6l0,0c0.7-0.1,1.4,0.3,1.6,1.1l0,0
			c0.1,0.7-0.4,1.4-1.1,1.6l0,0l0,0l0,0c-0.1,0-0.2,0-0.2,0l0,0C102.7,133.2,102.2,132.7,102.1,132.1z M107.5,131.1
			c-0.1-0.7,0.4-1.4,1.2-1.5l0,0c0.7-0.1,1.4,0.4,1.5,1.2l0,0c0.1,0.7-0.4,1.4-1.2,1.5l0,0c-0.1,0-0.1,0-0.2,0l0,0
			C108.2,132.3,107.6,131.8,107.5,131.1z M113.1,130.6c0-0.7,0.5-1.4,1.3-1.4l0,0c0.7,0,1.4,0.5,1.4,1.3l0,0c0,0.8-0.5,1.4-1.3,1.4
			l0,0l0,0l0,0c0,0-0.1,0-0.1,0l0,0C113.7,131.8,113.1,131.3,113.1,130.6z"/>
	</g>
	<g>
		<path fill="#FFFFFF" d="M114.4,183.8c-0.8,0-1.3-0.7-1.3-1.4l0,0c0-0.7,0.7-1.3,1.4-1.3l0,0c0.8,0,1.3,0.7,1.3,1.4l0,0
			C115.7,183.2,115.1,183.8,114.4,183.8L114.4,183.8C114.4,183.8,114.4,183.8,114.4,183.8z M119.9,183.9c-0.8,0-1.3-0.7-1.3-1.4l0,0
			c0-0.7,0.7-1.3,1.4-1.3l0,0c0.8,0,1.3,0.7,1.3,1.4l0,0C121.3,183.4,120.7,183.9,119.9,183.9L119.9,183.9
			C120,183.9,119.9,183.9,119.9,183.9z M108.7,183.3c-0.7-0.1-1.3-0.8-1.2-1.5l0,0c0.1-0.7,0.8-1.3,1.5-1.2l0,0c0,0,0,0,0,0l0,0
			c0.7,0.1,1.3,0.8,1.2,1.5l0,0c-0.1,0.7-0.7,1.2-1.3,1.2l0,0C108.8,183.3,108.8,183.3,108.7,183.3z M103.1,182.4L103.1,182.4
			c-0.7-0.1-1.2-0.8-1.1-1.6l0,0c0.1-0.7,0.8-1.2,1.6-1.1l0,0c0,0,0,0,0,0l0,0c0.7,0.1,1.2,0.8,1.1,1.6l0,0
			c-0.1,0.7-0.7,1.1-1.3,1.1l0,0C103.3,182.4,103.2,182.4,103.1,182.4z M97.6,181.2c-0.7-0.2-1.2-0.9-1-1.6l0,0
			c0.2-0.7,0.9-1.2,1.6-1l0,0l0,0l0,0c0.7,0.2,1.2,0.9,1,1.6l0,0c-0.2,0.6-0.7,1-1.3,1l0,0C97.8,181.2,97.7,181.2,97.6,181.2z
			 M92.2,179.6c-0.7-0.2-1.1-1-0.8-1.7l0,0c0.2-0.7,1-1.1,1.7-0.8l0,0c0,0,0,0,0,0l0,0c0.7,0.2,1.1,1,0.8,1.7l0,0
			c-0.2,0.6-0.7,0.9-1.3,0.9l0,0C92.5,179.6,92.3,179.6,92.2,179.6z M86.9,177.5L86.9,177.5c-0.7-0.3-1-1.1-0.7-1.8l0,0
			c0.3-0.7,1.1-1,1.8-0.7l0,0l0,0l0,0c0.7,0.3,1,1.1,0.7,1.8l0,0c-0.2,0.5-0.7,0.8-1.2,0.8l0,0C87.2,177.6,87.1,177.6,86.9,177.5z
			 M81.8,174.9L81.8,174.9c-0.6-0.4-0.9-1.2-0.5-1.8l0,0c0.4-0.6,1.2-0.9,1.8-0.5l0,0l0,0l0,0c0.6,0.4,0.9,1.2,0.5,1.9l0,0
			c-0.3,0.4-0.7,0.7-1.2,0.7l0,0C82.2,175.1,82,175,81.8,174.9z M77.1,171.6L77.1,171.6c-0.6-0.5-0.7-1.3-0.2-1.9l0,0
			c0.5-0.6,1.3-0.7,1.9-0.2l0,0l0,0l0,0c0.6,0.5,0.7,1.3,0.2,1.9l0,0c-0.3,0.3-0.7,0.5-1.1,0.5l0,0
			C77.6,171.9,77.3,171.8,77.1,171.6z M72.9,167.5L72.9,167.5c-0.5-0.6-0.4-1.4,0.2-1.9l0,0c0.6-0.5,1.4-0.4,1.9,0.2l0,0l0,0l0,0
			c0.5,0.6,0.4,1.4-0.2,1.9l0,0c-0.2,0.2-0.6,0.3-0.9,0.3l0,0C73.6,168,73.2,167.8,72.9,167.5z M69.9,162.4c-0.3-0.7,0-1.5,0.7-1.8
			l0,0c0.7-0.3,1.5,0.1,1.8,0.7l0,0l0,0l0,0c0.3,0.7,0,1.5-0.7,1.8l0,0c-0.2,0.1-0.3,0.1-0.5,0.1l0,0
			C70.6,163.2,70.1,162.9,69.9,162.4z M68.8,156.9c-0.3-0.7,0-1.5,0.7-1.8l0,0c0.7-0.3,1.5,0.1,1.8,0.7l0,0l0,0l0,0
			c0.3,0.7,0,1.5-0.7,1.8l0,0c-0.2,0.1-0.3,0.1-0.5,0.1l0,0C69.5,157.8,69,157.5,68.8,156.9z"/>
	</g>
	<path fill="#FFFFFF" d="M120,160.2c3.9,0,7-1.7,7-3.7c0-2.1-3.1-3.7-7-3.7c-3.9,0-7,1.7-7,3.7C113,158.5,116.1,160.2,120,160.2"/>
	<path fill="#031F59" d="M160.3,36.4c-22.2-22.2-58.2-22.1-80.4,0.2c-22.3,22.2-22.4,58.3-0.2,80.5l40.2,40l40.3-40.3
		C182.4,94.6,182.5,58.7,160.3,36.4"/>
	<path fill="#FFFFFF" d="M120,126.5c27.7,0,50.1-22.4,50.1-50.1S147.7,26.2,120,26.2c-27.7,0-50.1,22.4-50.1,50.1
		S92.3,126.5,120,126.5"/>
	<path fill="#DDDDDF" d="M155.3,111.9c-19.6,19.6-51.3,19.6-70.9,0c-19.6-19.6-19.6-51.3,0-70.9L155.3,111.9z"/>
	<path fill="#008BEF" d="M120.1,94.8c-10.1,0-18.2-8.2-18.2-18.2s8.2-18.2,18.2-18.2s18.2,8.2,18.2,18.2S130.2,94.8,120.1,94.8
		 M152.6,73.3h-8.5c-1.5-10.8-10-19.3-20.8-20.8v-8.5h-6.5v8.5c-10.8,1.5-19.3,10-20.8,20.8h-8.5v6.5h8.5
		c1.5,10.8,10,19.3,20.8,20.8v8.5h6.5v-8.5c10.8-1.5,19.3-10,20.8-20.8h8.5V73.3z"/>
	<path fill="#00A5F4" d="M107.2,63.7c3.3-3.3,7.9-5.4,12.9-5.4c10.1,0,18.2,8.2,18.2,18.2c0,5.1-2.1,9.6-5.4,12.9l4.3,4.3
		c3.7-3.7,6.2-8.5,7-14h8.5v-6.5h-8.5c-1.5-10.8-10-19.3-20.8-20.8v-8.5h-6.5v8.5c-5.4,0.7-10.3,3.3-14,7L107.2,63.7z"/>
</g>
</svg>
