<?xml version="1.0" encoding="utf-8"?>
<!-- Generator: Adobe Illustrator 18.1.0, SVG Export Plug-In . SVG Version: 6.00 Build 0)  -->
<!DOCTYPE svg PUBLIC "-//W3C//DTD SVG 1.1//EN" "http://www.w3.org/Graphics/SVG/1.1/DTD/svg11.dtd">
<svg version="1.1" xmlns="http://www.w3.org/2000/svg" xmlns:xlink="http://www.w3.org/1999/xlink" x="0px" y="0px" width="240px"
	 height="240px" viewBox="0 0 240 240" enable-background="new 0 0 240 240" xml:space="preserve">
<g id="Layer_1">
</g>
<g id="Layer_2">
	<g>
		<g>
			<path fill="#FFFFFF" d="M41.6,113.9c-1.1-23.8,22.2-39.4,39.9-31.8C80,63.7,92.6,52.2,110,49.5c15-2.4,27.6,5.8,34.2,19.6
				c14.6-17.9,48.2,1.5,34.4,24.5c24.7,0.2,31.8,47.8-10.4,48.9H71.3c-16.4,0-29.8-14.6-29.8-27.7"/>
			<path fill="#031F59" d="M71.3,144.6c-8.3,0-16.3-3.4-22.6-9.6c-6-5.9-9.4-13.3-9.4-20.3c0-0.1,0-0.3,0-0.4c0-0.1,0-0.2,0-0.3
				c-0.6-12.1,5-23.5,14.8-30.3c7.7-5.4,16.8-7,24.9-4.7c0.2-16.4,11.9-28.7,30.5-31.6c14.3-2.3,27.4,4.6,35.1,18
				c8.6-7.8,21.2-6.4,29.4-0.6c7.8,5.5,12.8,15.7,7.9,26.9c11.6,2,18.5,13.6,18.7,24.8c0.1,12.6-8.3,27.5-32.5,28.2L71.3,144.6z
				 M43.7,114.3c0,0.1,0,0.3,0,0.4c0,11.8,12.1,25.5,27.6,25.5h96.8c20.9-0.5,28.3-12.6,28.2-23.8c-0.1-10.2-6.8-20.7-17.8-20.8
				c-0.8,0-1.5-0.4-1.9-1.1c-0.4-0.7-0.4-1.5,0-2.2c6.4-10.6,1.2-19.6-5.1-24c-7.6-5.3-18.8-6.3-25.8,2.1c-0.5,0.6-1.2,0.9-1.9,0.8
				c-0.7-0.1-1.4-0.5-1.7-1.2c-6.5-13.6-18.5-20.5-31.9-18.4c-13.9,2.2-28.2,11.3-26.7,30.3c0.1,0.8-0.3,1.5-0.9,1.9
				c-0.6,0.4-1.4,0.5-2.1,0.2c-7.4-3.2-16.3-2-23.9,3.2c-8.6,6-13.5,15.9-13,26.5C43.7,114,43.7,114.1,43.7,114.3z"/>
		</g>
		<g>
			<path fill="#DEE0E3" d="M111,51.6c-0.2,0-0.4,0-0.7,0.1c-13.9,2.2-28.2,11.3-26.7,30.3c0.1,0.8-0.3,1.5-0.9,1.9
				c-0.6,0.4-1.4,0.5-2.1,0.2c-7.4-3.2-16.3-2-23.9,3.2c-8.6,6-13.5,15.9-13,26.5c0,0.2,0,0.3,0,0.5c0,0.1,0,0.3,0,0.4
				c0,11.8,12.1,25.5,27.6,25.5h66.4L111,51.6z"/>
		</g>
		<g opacity="0.18">
			<path d="M120,193.1c35.6,0,64.4-4.6,64.4-10.3c0-5.7-28.8-10.3-64.4-10.3c-35.6,0-64.4,4.6-64.4,10.3
				C55.6,188.5,84.4,193.1,120,193.1"/>
		</g>
		<g>
			<g>
				<polygon fill="#008CF0" points="154.5,89.5 114.7,128.1 94.2,106.2 102.8,97.9 114.8,110.3 146.1,80 				"/>
			</g>
			<g>
				<polygon fill="#00A6F5" points="125.5,99.9 129.7,113.6 154.5,89.5 146.1,80 				"/>
			</g>
		</g>
	</g>
</g>
</svg>
